#!OML:ASF X:\für Bonn\!DataBase\2005_08_10_Bjorn_Final\c3d\bjorn.ASF
:FULLY-SPECIFIED
:DEGREES
33
root 0.743431 18.3317 2.36987 -174.594 -1.23907 -180.592
lowerback 4.66087 1.60053 3.50474
upperback 4.9987 1.88518 -0.084141
thorax 2.66821 0.911018 -2.09536
lowerneck -13.6385 -2.76522 -1.88549
upperneck 13.9099 -3.33009 -1.07441
head 6.48963 -1.84791 -0.358775
rclavicle 3.8763e-015 -2.78299e-015
rhumerus 77.5301 4.04365 -76.4018
rradius 5.68996
rwrist 51.437
rhand -16.0263 6.87959
rfingers 7.12502
rthumb 10.1748 -22.8544
lclavicle 3.8763e-015 -2.78299e-015
lhumerus 77.6836 -13.7851 80.2231
lradius 6.39056
lwrist -58.1265
lhand -21.4719 -6.22349
lfingers 7.12502
lthumb 4.91874 23.6994
rfemur -25.7376 -10.5408 16.5312
rtibia 50.1324
rfoot -25.7069 12.3928
rtoes -18.0605
lfemur -25.8975 1.67279 -18.4121
ltibia 51.9927
lfoot -22.7378 0.655514
ltoes -21.2376
34
root 0.734308 18.2136 2.40303 -174.607 -1.07525 -180.592
lowerback 5.02288 1.62637 3.528
upperback 5.05957 1.91688 -0.0826415
thorax 2.53288 0.919318 -2.11661
lowerneck -13.7699 -2.74608 -1.81283
upperneck 13.7501 -3.3004 -1.1115
head 6.4588 -1.82831 -0.379464
rclavicle 2.40529e-014 3.57812e-015
rhumerus 77.7998 4.02531 -76.2877
rradius 5.76055
rwrist 51.2348
rhand -15.8773 7.04114
rfingers 7.12502
rthumb 10.3186 -22.6857
lclavicle 2.40529e-014 3.57812e-015
lhumerus 77.9843 -13.7209 80.1475
lradius 6.32486
lwrist -57.6766
lhand -21.7703 -6.32875
lfingers 7.12502
lthumb 4.63059 23.6006
rfemur -26.7743 -10.5361 16.4888
rtibia 51.8522
rfoot -26.429 12.7062
rtoes -17.5426
lfemur -27.1413 1.83235 -18.4387
ltibia 54.1426
lfoot -23.3166 0.666903
ltoes -21.6266
35
root 0.724925 18.093 2.43451 -174.569 -0.914181 -180.572
lowerback 5.32853 1.65301 3.59278
upperback 5.1049 1.9524 -0.0985822
thorax 2.41574 0.932443 -2.17807
lowerneck -13.9118 -2.73237 -1.74304
upperneck 13.5999 -3.28524 -1.09823
head 6.43378 -1.81161 -0.385241
rclavicle -4.06515e-014 -2.10712e-014
rhumerus 77.9499 4.00983 -76.2203
rradius 6.09947
rwrist 50.961
rhand -15.42 7.14176
rfingers 7.12502
rthumb 10.7596 -22.5627
lclavicle -4.06515e-014 -2.10712e-014
lhumerus 78.2766 -13.6916 80.0493
lradius 6.2629
lwrist -57.0611
lhand -22.1222 -6.43126
lfingers 7.12502
lthumb 4.29076 23.5053
rfemur -27.8796 -10.5686 16.4767
rtibia 53.5983
rfoot -27.1393 13.049
rtoes -16.9505
lfemur -28.4441 1.99001 -18.4392
ltibia 56.3069
lfoot -23.8654 0.72833
ltoes -22.2012
36
root 0.71531 17.9696 2.4651 -174.5 -0.7745 -180.555
lowerback 5.58607 1.66381 3.6196
upperback 5.16011 1.96294 -0.0885934
thorax 2.33167 0.931886 -2.1896
lowerneck -14.0732 -2.71264 -1.66523
upperneck 13.4491 -3.25418 -1.14884
head 6.41062 -1.79269 -0.411513
rclavicle -1.88845e-014 7.95139e-015
rhumerus 78.1403 4.03199 -76.1269
rradius 6.40289
rwrist 50.5818
rhand -15.0056 7.29126
rfingers 7.12502
rthumb 11.1593 -22.392
lclavicle -1.88845e-014 7.95139e-015
lhumerus 78.5133 -13.6157 79.9749
lradius 6.27401
lwrist -56.3324
lhand -22.5245 -6.61164
lfingers 7.12502
lthumb 3.90227 23.3324
rfemur -29.0314 -10.6261 16.4619
rtibia 55.3859
rfoot -27.7016 13.4769
rtoes -16.2105
lfemur -29.7739 2.12302 -18.4309
ltibia 58.4672
lfoot -24.3833 0.71099
ltoes -22.693
37
root 0.705765 17.8426 2.49528 -174.401 -0.632504 -180.555
lowerback 5.79792 1.69329 3.6471
upperback 5.21679 1.99818 -0.102872
thorax 2.2773 0.945203 -2.22605
lowerneck -14.2214 -2.71174 -1.60492
upperneck 13.2566 -3.25414 -1.13771
head 6.37327 -1.7837 -0.417471
rclavicle -1.21259e-014 1.11319e-014
rhumerus 78.3004 3.99848 -76.0467
rradius 6.74311
rwrist 50.2122
rhand -14.5215 7.43638
rfingers 7.12502
rthumb 11.6262 -22.2211
lclavicle -1.21259e-014 1.11319e-014
lhumerus 78.7352 -13.6052 79.8921
lradius 6.3057
lwrist -55.5618
lhand -22.9913 -6.82751
lfingers 7.12502
lthumb 3.45148 23.1243
rfemur -30.2709 -10.6884 16.4362
rtibia 57.2578
rfoot -28.2818 13.7859
rtoes -15.7439
lfemur -31.1449 2.2366 -18.4284
ltibia 60.628
lfoot -24.8876 0.598795
ltoes -23.0941
38
root 0.697391 17.7113 2.52632 -174.274 -0.50855 -180.558
lowerback 6.00536 1.7044 3.64828
upperback 5.25384 2.0102 -0.104183
thorax 2.20178 0.946114 -2.23396
lowerneck -14.384 -2.69801 -1.52769
upperneck 13.0982 -3.23247 -1.18871
head 6.34787 -1.76977 -0.444594
rclavicle -5.36719e-015 0
rhumerus 78.3232 4.03428 -75.9843
rradius 7.33212
rwrist 49.9293
rhand -13.9963 7.47189
rfingers 7.12502
rthumb 12.1327 -22.1563
lclavicle -5.36719e-015 0
lhumerus 78.8831 -13.5807 79.8277
lradius 6.39225
lwrist -54.7709
lhand -23.4311 -7.02267
lfingers 7.12502
lthumb 3.02675 22.9356
rfemur -31.6036 -10.751 16.4072
rtibia 59.2503
rfoot -28.85 14.1374
rtoes -15.4324
lfemur -32.5704 2.31733 -18.41
ltibia 62.8074
lfoot -25.3423 0.492795
ltoes -23.6698
39
root 0.688604 17.5746 2.55681 -174.157 -0.390684 -180.523
lowerback 6.21114 1.7281 3.71204
upperback 5.30578 2.03932 -0.111383
thorax 2.1471 0.957329 -2.28336
lowerneck -14.5496 -2.70721 -1.47898
upperneck 12.915 -3.24415 -1.18352
head 6.31652 -1.76825 -0.452113
rclavicle 3.18055e-015 1.55052e-014
rhumerus 78.3659 4.01336 -75.925
rradius 7.79264
rwrist 49.8133
rhand -13.7289 7.56243
rfingers 7.12502
rthumb 12.3905 -22.0504
lclavicle 3.18055e-015 1.55052e-014
lhumerus 78.9911 -13.6062 79.7567
lradius 6.54749
lwrist -54.0071
lhand -23.8802 -7.26293
lfingers 7.12502
lthumb 2.59303 22.7011
rfemur -33.014 -10.8069 16.4205
rtibia 61.3987
rfoot -29.5179 14.3311
rtoes -15.7676
lfemur -33.9964 2.37844 -18.324
ltibia 65.0169
lfoot -25.733 0.304369
ltoes -24.267
40
root 0.680394 17.43 2.58775 -174.027 -0.286178 -180.541
lowerback 6.38387 1.73933 3.6952
upperback 5.37044 2.04609 -0.108939
thorax 2.11859 0.955066 -2.27583
lowerneck -14.7363 -2.70561 -1.431
upperneck 12.7432 -3.23277 -1.24027
head 6.29129 -1.76159 -0.477562
rclavicle 3.18055e-015 -5.56597e-015
rhumerus 78.4528 4.01859 -75.8366
rradius 8.17408
rwrist 49.7165
rhand -13.6873 7.64285
rfingers 7.12502
rthumb 12.4306 -21.9675
lclavicle 3.18055e-015 -5.56597e-015
lhumerus 79.0714 -13.6064 79.7128
lradius 6.74876
lwrist -53.3872
lhand -24.2837 -7.46687
lfingers 7.12502
lthumb 2.20336 22.5015
rfemur -34.5455 -10.8607 16.3597
rtibia 63.7298
rfoot -30.1098 14.5079
rtoes -16.1881
lfemur -35.4657 2.38426 -18.2826
ltibia 67.275
lfoot -25.9366 0.207496
ltoes -25.4326
41
root 0.672906 17.2766 2.61893 -173.927 -0.19635 -180.523
lowerback 6.61293 1.75753 3.74042
upperback 5.41173 2.06918 -0.126517
thorax 2.03933 0.962545 -2.3264
lowerneck -14.7626 -2.72154 -1.37763
upperneck 12.4916 -3.26226 -1.21886
head 6.21472 -1.76747 -0.47946
rclavicle 3.45885e-014 1.90833e-014
rhumerus 78.4748 3.97818 -75.7859
rradius 8.4595
rwrist 49.8847
rhand -13.8661 7.70631
rfingers 7.12502
rthumb 12.2582 -21.9144
lclavicle 3.45885e-014 1.90833e-014
lhumerus 79.0492 -13.6798 79.6518
lradius 7.04822
lwrist -52.8724
lhand -24.5539 -7.72183
lfingers 7.12502
lthumb 1.9424 22.2491
rfemur -36.1499 -10.9003 16.3399
rtibia 66.2282
rfoot -30.7048 14.4942
rtoes -17.2187
lfemur -36.9471 2.34272 -18.1419
ltibia 69.5918
lfoot -26.0969 -0.052506
ltoes -26.6642
42
root 0.665825 17.1137 2.65073 -173.839 -0.147426 -180.508
lowerback 6.82919 1.75688 3.76137
upperback 5.48492 2.06044 -0.109317
thorax 1.99598 0.951999 -2.32538
lowerneck -14.8169 -2.73696 -1.40837
upperneck 12.2269 -3.27212 -1.20701
head 6.14016 -1.76908 -0.469327
rclavicle -6.36111e-015 1.35174e-014
rhumerus 78.5167 3.99129 -75.7017
rradius 8.73173
rwrist 50.0459
rhand -14.255 7.74846
rfingers 7.12502
rthumb 11.8833 -21.8943
lclavicle -6.36111e-015 1.35174e-014
lhumerus 79.0171 -13.7142 79.6295
lradius 7.37872
lwrist -52.5704
lhand -24.8223 -7.82247
lfingers 7.12502
lthumb 1.6832 22.1506
rfemur -37.8191 -10.9484 16.3031
rtibia 68.8652
rfoot -31.1142 14.5803
rtoes -18.0208
lfemur -38.4475 2.17142 -17.9341
ltibia 71.972
lfoot -26.2607 -0.413107
ltoes -27.9555
